# xmcd
#
# Track frame offsets:
#  150
#  15118
#  37687
#  52998
#  65310
#  93144
#  105894
#  118476
#  129969
#  166312
#  184869
#  199585
#  211740
#  227755
#  241629
#
# Disc length: 3493 seconds
#
# Revision: 7
# Processed by: cddbd v1.5.2PL0 Copyright (c) Steve Scherf et al.
# Submitted via: Collectorz.com_Music_Collector 6.11
#
DISCID=a80da30f
DTITLE=Various Artist - The World Of Blues (2CDs) [CD1)
DYEAR=1996
DGENRE=Blues
TTITLE0=The Cryin' Fox - Boom Boom
TTITLE1=B.B. King - The Thrill Is Gone
TTITLE2=Willie Dixon and The Memphis Slim - That's My Baby
TTITLE3=Elmore James - Mean Mistreatin' Mama
TTITLE4=B.B. King - Payin' The Cost To Be The Boss
TTITLE5=John Lee Hooker - Hobo Blues
TTITLE6=Howlin' Wolf - My Mind Is Ramblin'
TTITLE7=Muddy Waters - Goin' Home
TTITLE8=Big Joe Turner - Roll Me Baby
TTITLE9=Memphis Slim - Gambler's Blues
TTITLE10=Sonny Terry and Brownie McGhee - Gonna Lay My Body Down
TTITLE11=Jimmy Reed - My Baby Is So Sweet
TTITLE12=Little Walter - Walters Blues
TTITLE13=Howlin' Wolf - Highway 49
TTITLE14=Lightnin' Hopkins - Automobile Blues
EXTD=
EXTT0=
EXTT1=
EXTT2=
EXTT3=
EXTT4=
EXTT5=
EXTT6=
EXTT7=
EXTT8=
EXTT9=
EXTT10=
EXTT11=
EXTT12=
EXTT13=
EXTT14=
PLAYORDER=
